<svg version="1.1" id="Layer_1" xmlns="http://www.w3.org/2000/svg" xmlns:xlink="http://www.w3.org/1999/xlink" x="0px" y="0px"
	 width="100%" viewBox="0 0 1024 1024" enable-background="new 0 0 1024 1024" xml:space="preserve">
<path fill="#000000" opacity="1.000000" stroke="none" 
	d="
M492.373535,727.621094 
	C481.110107,716.486755 470.094116,705.599365 459.021301,694.770081 
	C457.910614,693.683838 456.896301,692.404907 454.746613,692.997986 
	C447.438873,695.014038 443.178741,693.770630 439.454315,687.716675 
	C436.201874,682.429871 433.022308,677.522217 427.299194,674.367493 
	C423.824158,672.451904 421.645538,668.600769 420.547028,664.723633 
	C419.351898,660.505432 416.923431,657.388611 413.899536,654.415466 
	C382.894775,623.930481 351.639801,593.691162 321.082886,562.762573 
	C300.473663,541.902832 279.610565,521.306030 258.804260,500.649292 
	C255.382721,497.252411 255.726349,494.824371 258.985901,491.503601 
	C272.058136,478.185730 285.651917,465.426849 299.461487,452.888702 
	C300.198547,452.219513 300.935272,451.227173 301.797821,451.068573 
	C310.845703,449.404541 315.767822,441.883148 321.950623,436.459412 
	C348.866730,412.847870 375.497650,388.907410 402.035339,364.869171 
	C434.740509,335.244263 467.243256,305.395905 499.851379,275.663727 
	C505.513550,270.500946 511.299530,265.473938 516.959412,260.308746 
	C519.797302,257.718933 521.987793,257.570160 524.944214,260.594940 
	C539.838196,275.833344 554.993347,290.815979 569.986084,305.958435 
	C582.285767,318.380920 594.395630,330.992218 606.751465,343.358185 
	C626.517700,363.140717 646.493896,382.713562 666.235657,402.520264 
	C680.215149,416.545776 693.827515,430.937500 707.828796,444.940796 
	C731.015747,468.131134 754.364014,491.160583 777.705566,514.195679 
	C780.167480,516.625305 780.161682,518.523193 777.715881,520.890442 
	C756.292664,541.625366 735.226135,562.721008 713.309875,582.956543 
	C699.000610,596.168457 685.156860,609.886719 670.757690,623.020020 
	C647.868225,643.897156 625.034912,664.841248 602.479919,686.077881 
	C588.438721,699.298401 574.113464,712.277100 562.432129,727.832214 
	C559.246094,732.074829 555.620483,736.526672 549.297241,736.752991 
	C547.443054,736.819397 546.216064,738.628052 544.914856,739.903870 
	C539.679688,745.036133 534.504028,750.229309 529.245728,755.337463 
	C525.200562,759.266968 523.716187,759.169861 519.736206,755.156433 
	C510.707062,746.051270 501.650421,736.973389 492.373535,727.621094 
M700.963501,466.536591 
	C641.061218,407.094940 581.158875,347.653259 521.062439,288.018951 
	C460.671967,342.760223 403.373016,399.807404 343.078918,455.432892 
	C353.356262,456.434662 362.111511,454.892975 371.082916,456.636871 
	C369.408386,461.261475 366.432159,462.978455 363.050446,464.041199 
	C358.149323,465.581390 354.170746,468.358154 350.539551,471.963196 
	C343.807465,478.646759 336.903839,485.163300 329.917236,491.581268 
	C327.736572,493.584534 326.041351,495.424530 326.019653,498.669434 
	C325.998871,501.784149 323.955292,503.412415 320.963928,502.066498 
	C318.010742,500.737701 316.237366,502.056519 314.368286,503.867981 
	C311.738922,506.416290 309.030823,508.886810 306.473846,511.505280 
	C304.174988,513.859436 301.949158,516.079224 297.840179,513.691406 
	C311.023529,527.763489 324.444000,540.889954 337.823059,554.058533 
	C356.332764,572.276978 374.796844,590.541870 393.308868,608.757935 
	C403.389465,618.677429 413.499084,628.567993 423.663666,638.401245 
	C426.033661,640.693970 428.643188,642.956177 432.339355,639.668884 
	C428.366882,636.449829 424.178345,634.027710 420.710083,630.641785 
	C401.287811,611.680664 381.781219,592.805847 362.341949,573.862061 
	C361.010223,572.564270 358.338501,571.586914 359.386230,569.237183 
	C360.376984,567.015198 362.906921,567.883057 364.815002,568.082092 
	C375.689819,569.216309 375.701782,569.244507 375.657654,558.258423 
	C375.529205,526.280029 375.383484,494.301727 375.258087,462.323303 
	C375.246307,459.318695 376.064423,457.196655 379.784088,457.224030 
	C405.757050,457.415253 431.730743,457.518616 457.704315,457.623535 
	C469.701874,457.671997 481.699768,457.642944 493.697266,457.700134 
	C495.120422,457.706909 496.933167,457.242401 497.685455,458.973511 
	C498.431152,460.689270 496.947968,461.723572 495.924500,462.759003 
	C488.312927,470.459167 480.664520,478.122925 473.052551,485.822723 
	C470.727631,488.174500 468.081024,489.257294 464.668304,489.533447 
	C452.512115,490.517181 440.350739,489.744629 428.197601,490.052704 
	C411.727997,490.470184 414.619934,487.503571 414.240326,504.630188 
	C414.167664,507.907440 415.482269,509.045410 418.678436,508.986755 
	C427.173920,508.830780 435.674927,508.761475 444.170685,508.878876 
	C460.820770,509.108856 477.493378,508.079620 494.117889,509.708923 
	C495.715363,509.865479 497.804810,509.458130 498.544891,511.311523 
	C499.343903,513.312561 497.655304,514.792725 496.456543,516.058289 
	C488.785980,524.156555 481.034149,532.178223 473.269653,540.186951 
	C471.604828,541.904053 469.608337,543.164246 467.074554,542.920044 
	C452.274048,541.493591 437.440857,542.575073 422.625336,542.320862 
	C415.016449,542.190247 415.090637,542.302002 414.978821,550.165771 
	C414.763458,565.312988 414.521027,580.455566 414.789703,595.608826 
	C414.848511,598.925354 415.551819,601.184631 417.916901,603.434448 
	C450.264069,634.206238 481.728912,665.871521 513.132324,697.599487 
	C520.718689,705.264343 528.521362,712.715027 536.614807,720.646606 
	C585.749451,675.583984 634.949585,630.461365 684.149719,585.338684 
	C683.924011,584.929382 683.698364,584.520142 683.472656,584.110901 
	C675.025635,584.110901 666.567200,584.384644 658.134644,584.035400 
	C649.353821,583.671814 640.890686,585.145752 632.474854,587.260986 
	C628.942688,588.148682 625.789429,589.645813 623.740295,594.614807 
	C629.705322,594.614807 634.834961,594.607117 639.964539,594.616577 
	C647.629456,594.630676 655.294434,594.649353 662.959229,594.684875 
	C664.286682,594.691040 665.730347,594.608826 666.374329,596.143616 
	C666.727844,596.986084 666.345093,597.757324 665.752563,598.409058 
	C658.801636,606.054993 651.303223,612.426758 639.821899,609.762512 
	C638.700623,609.502319 637.508301,609.467773 636.348633,609.465393 
	C616.697998,609.424438 597.047058,609.343628 577.396973,609.431580 
	C573.313232,609.449890 571.714050,607.862427 571.788452,603.806091 
	C571.956604,594.643616 571.904114,585.476562 571.901123,576.311401 
	C571.882324,518.653748 571.842957,460.996124 571.863464,403.338470 
	C571.864258,401.184540 570.978638,398.605530 573.627686,397.063324 
	C575.312927,397.231476 576.335449,398.367920 577.359680,399.432037 
	C585.096741,407.470856 592.723083,415.619110 600.586731,423.531708 
	C603.273926,426.235596 604.255066,429.098541 604.243713,432.860199 
	C604.136719,468.354340 604.549316,503.855377 603.928711,539.338989 
	C603.767883,548.538818 605.971985,555.203796 613.163330,560.764648 
	C616.509888,563.352478 619.671570,565.154297 623.976135,564.850342 
	C631.781982,564.299194 639.594910,563.734619 647.432129,564.098816 
	C665.076965,564.918701 682.734680,564.744324 700.389587,564.840271 
	C703.348755,564.856384 705.875122,564.294373 708.154236,562.198486 
	C722.375793,549.120239 736.633606,536.080750 750.975098,523.134338 
	C754.186157,520.235596 754.243958,518.122314 751.003723,515.025208 
	C734.384277,499.139984 717.959106,483.051544 700.963501,466.536591 
M459.538696,666.960876 
	C482.205963,690.056946 505.004791,713.017639 528.179932,735.591187 
	C528.805176,734.952637 529.430420,734.314148 530.055664,733.675598 
	C501.151978,704.653870 472.749176,675.124512 442.543732,647.422180 
	C442.200317,647.761841 441.856903,648.101440 441.513489,648.441101 
	C447.348175,654.454834 453.182861,660.468567 459.538696,666.960876 
z"/>
<path fill="#000000" opacity="1.000000" stroke="none" 
	d="
M629.752930,682.206909 
	C630.419495,682.754822 630.802490,683.071167 631.188049,683.384521 
	C635.473328,686.868103 636.239075,690.261902 633.451416,693.419128 
	C631.011230,696.182800 625.974365,695.615417 622.906311,692.231201 
	C619.652649,688.642273 619.851135,684.181824 623.300415,681.332642 
	C625.635559,679.403870 627.565613,680.312622 629.752930,682.206909 
z"/>
<path fill="#000000" opacity="1.000000" stroke="none" 
	d="
M573.009155,299.475647 
	C572.386536,296.221252 572.806885,293.260254 576.049988,292.910675 
	C579.514526,292.537170 583.045715,293.805878 584.781921,297.251160 
	C586.137878,299.941742 583.689453,303.036804 580.236084,303.364838 
	C577.183655,303.654816 574.738281,302.578979 573.009155,299.475647 
z"/>
<path fill="#000000" opacity="1.000000" stroke="none" 
	d="
M481.813782,286.237122 
	C481.410950,286.558716 481.269562,286.672729 481.113007,286.700043 
	C478.134735,287.219452 475.731750,286.522461 475.139191,283.205261 
	C474.829163,281.469727 476.058136,280.147034 477.755371,280.325348 
	C480.985779,280.664795 482.957703,282.332336 481.813782,286.237122 
z"/>
<path fill="#000000" opacity="1.000000" stroke="none" 
	d="
M695.734619,424.429016 
	C694.624878,424.691589 693.794983,425.007996 693.018555,424.908447 
	C691.273254,424.684631 689.514587,423.879303 689.894592,421.871277 
	C690.319763,419.625214 692.426819,419.989929 693.915771,420.576385 
	C695.393738,421.158478 698.653320,421.198547 695.734619,424.429016 
z"/>
<path fill="#000000" opacity="1.000000" stroke="none" 
	d="
M655.812500,659.533813 
	C657.366272,656.967529 659.119690,654.883545 662.802429,652.959290 
	C660.805115,656.821167 659.549683,659.556702 655.812500,659.533813 
z"/>
<path fill="#000000" opacity="1.000000" stroke="none" 
	d="
M434.571899,317.514587 
	C435.190735,320.109741 434.113068,321.029327 432.004181,320.500153 
	C430.729736,320.180389 430.157654,318.865967 430.586823,317.694061 
	C431.442200,315.358521 432.912323,315.805450 434.571899,317.514587 
z"/>
<path fill="#000000" opacity="1.000000" stroke="none" 
	d="
M557.066101,507.000061 
	C557.088379,543.159912 557.062500,578.820007 557.211914,614.479309 
	C557.230286,618.855103 555.858521,622.159241 552.648560,625.011780 
	C539.836121,636.397766 527.111023,647.882019 514.287476,659.255493 
	C513.011414,660.387268 511.683990,662.393066 509.629486,661.431519 
	C507.385345,660.381287 508.054474,657.979126 508.052979,656.054504 
	C507.976715,558.572693 507.926788,461.090881 507.859161,363.609070 
	C507.853943,356.111023 507.724030,348.613068 507.695618,341.114929 
	C507.690735,339.820404 507.461426,338.304138 508.865295,337.524597 
	C510.599426,336.561646 511.723328,337.934814 512.727295,338.949738 
	C519.398376,345.694061 525.999390,352.507629 532.644958,359.277252 
	C534.364258,361.028687 534.201599,363.200378 534.202881,365.368866 
	C534.241394,428.524872 534.088318,491.682007 534.441284,554.836304 
	C534.554810,575.145691 535.387939,595.457764 535.358765,615.778015 
	C535.356934,617.051758 535.046387,618.487488 536.632507,619.699158 
	C538.705505,616.567871 540.269409,612.958923 539.317261,609.603210 
	C536.410217,599.357971 538.833252,589.803345 542.083435,580.292786 
	C545.377380,570.653992 545.771851,561.452332 541.768982,551.619385 
	C538.072693,542.539795 537.065430,532.579773 537.050598,522.672302 
	C536.977844,474.180634 536.888489,425.688995 536.884277,377.197327 
	C536.883972,373.661774 535.735901,369.991394 537.479553,366.336548 
	C541.012268,366.994446 541.997925,370.310760 544.288330,372.025818 
	C554.403748,379.600555 556.667236,389.597656 556.674500,402.040558 
	C556.694885,436.855835 556.957947,471.679413 557.066101,507.000061 
z"/>
</svg>